<?xml version="1.0" encoding="UTF-8"?>
<svg width="300px" height="300px" viewBox="0 0 300 300" version="1.1" xmlns="http://www.w3.org/2000/svg" xmlns:xlink="http://www.w3.org/1999/xlink">
    <title>Artboard</title>
    <g id="Artboard" stroke="none" stroke-width="1" fill="none" fill-rule="evenodd">
        <g id="Group-2" transform="translate(20.000000, 9.000000)">
            <g id="Group" transform="translate(139.029493, 45.072239) rotate(-11.039428) translate(-139.029493, -45.072239) translate(103.529493, 6.072239)">
                <path d="M62.3417167,15.3252119 C67.0457082,20.3936448 68.1082067,29.7941738 68.1371658,37.3193665 C68.1661248,44.8445591 66.027178,54.492285 62.5154712,60.4763676 C59.0037643,66.4604502 53.6251868,71.2882638 47.0669246,73.2238619 C40.5086625,75.15946 30.1734048,74.5648338 23.1658984,72.0899561 C16.1583919,69.6150784 8.42368174,65.0822489 5.02188604,58.3745957 C1.62009034,51.6669425 1.11692461,39.7942176 2.75512415,31.8440369 C4.3933237,23.8938561 9.37988765,15.3050411 14.8510833,10.6735112 C20.322279,6.04198134 28.5705499,4.1223897 35.5822981,4.05485754 C42.5940464,3.98732539 51.6877559,6.65155752 56.9215726,10.2683183 C62.1553894,13.8850791 64.7472096,20.864273 66.9851986,25.7554222 C69.2231876,30.6465713 70.8379598,39.661142 70.3495064,39.6152132 M35.5365979,3.63437477 C42.4085633,3.77214364 51.3554402,6.04377983 56.5381912,10.6028384 C61.7209421,15.1618969 65.0664607,23.1340472 66.6331036,30.9887259 C68.1997466,38.8434046 68.528382,51.0516704 65.9380489,57.7309108 C63.3477157,64.4101512 58.0454611,68.3188141 51.0911046,71.0641683 C44.1367481,73.8095224 31.7982491,76.2296155 24.2119097,74.2030357 C16.6255704,72.176456 9.3750219,65.1255383 5.57306869,58.9046899 C1.77111549,52.6838415 0.685327021,44.6987775 1.40019053,36.8779453 C2.11505403,29.0571131 5.20392409,18.0411289 9.86224972,11.9796969 C14.5205754,5.9182649 25.0288272,1.90796164 29.3501443,0.509353268 C33.6714614,-0.889255104 34.88262,2.90555523 35.7901524,3.58804667 C36.6976847,4.27053811 34.4253036,4.55219726 34.7953384,4.60430192" id="Shape" fill="#90CF61" fill-rule="nonzero"></path>
                <path d="M55.1128663,8.80616478 C61.1825582,12.967907 67.8564549,23.0827361 69.9351537,30.2511919 C72.0138526,37.4196478 70.7618361,44.8392474 67.5850594,51.8168998 C64.4082828,58.7945522 56.9586315,68.0724335 50.8744938,72.1171062 C44.7903561,76.1617789 38.1830439,77.8588806 31.0802334,76.0849362 C23.977423,74.3109918 13.4111881,67.187609 8.25763127,61.4734397 C3.10407446,55.7592703 -0.00130113192,49.1977027 0.158892591,41.7999203 C0.319086313,34.402138 5.07887104,23.2189442 9.2187936,17.0867454 C13.3587162,10.9545467 18.1525055,6.9721893 24.998428,5.00672764 C31.8443505,3.04126598 43.2965467,2.814457 50.2943285,5.29397546 C57.2921103,7.77349393 63.7283047,14.7792301 66.9851186,19.8838385 C70.2419325,24.9884468 70.7954101,35.5607331 69.8352119,35.9216253 M18.8245384,9.99342613 C24.1300917,6.05636576 29.6499902,3.6417794 36.1038097,3.52537155 C42.5576292,3.4089637 52.0044082,3.81999916 57.5474555,9.29497902 C63.0905028,14.7699589 68.0749904,28.2129998 69.3620937,36.3752507 C70.6491969,44.5375016 69.2411006,52.1471224 65.2700749,58.2684844 C61.2990492,64.3898464 52.1384738,70.0112107 45.5359396,73.103423 C38.9334053,76.1956353 32.3893,79.0492659 25.6548692,76.8217584 C18.9204384,74.5942509 8.7474902,66.2670523 5.12935486,59.7383782 C1.51121951,53.2097042 2.71320492,45.7232738 3.9460571,37.6497141 C5.17890927,29.5761544 10.3720267,15.7018719 12.5264679,11.2970199 C14.6809091,6.89216787 16.3482128,11.6253074 16.8727043,11.2206021 C17.3971958,10.8158969 15.2296194,8.39326186 15.6734168,8.86878839" id="Shape" stroke="#000000" stroke-width="2"></path>
            </g>
            <g id="Group" transform="translate(64.275931, 75.445645) rotate(-48.539142) translate(-64.275931, -75.445645) translate(32.275931, 17.945645)">
                <path d="M26.6924991,2.60496699 C31.9041212,0.194357562 39.9320088,2.58362676 45.2390188,7.63760216 C50.5460288,12.6915776 55.7733322,23.524642 58.534559,32.9288194 C61.2957858,42.3329967 62.2326556,53.8784658 61.8063797,64.0626663 C61.3801039,74.2468667 59.662277,85.9283462 55.9769038,94.034022 C52.2915306,102.139698 45.5511058,110.285537 39.6941405,112.696721 C33.8371751,115.107906 26.4256104,112.357842 20.8351116,108.501128 C15.2446127,104.644415 9.11970193,97.5061854 6.15114747,89.5564409 C3.182593,81.6066964 3.2178652,71.0478026 3.02378477,60.8026615 C2.82970434,50.5575203 2.16619458,36.6986562 4.98666489,28.085594 C7.8071352,19.4725318 11.5780496,10.4464016 19.9466066,9.12428832 C28.3151636,7.80217501 48.144007,9.9613445 55.1980069,20.1529142 C62.2520068,30.3444838 62.678923,69.2872916 62.2706059,70.2737062 M14.0541875,10.1164088 C18.3788224,4.06415965 29.2930214,2.75186474 35.4415883,3.69569882 C41.5901552,4.6395329 46.8866699,9.08499409 50.945589,15.7794133 C55.0045081,22.4738325 58.1568291,34.1058639 59.7951029,43.862214 C61.4333767,53.6185642 62.3100328,64.2577016 60.7752319,74.3175142 C59.240431,84.3773268 55.1479959,97.6217266 50.5862975,104.22109 C46.0245991,110.820453 39.0577638,113.357741 33.4050416,113.913693 C27.7523194,114.469645 21.2323924,112.683776 16.6699643,107.556801 C12.1075363,102.429826 8.77497505,92.7168091 6.03047307,83.1518432 C3.28597109,73.5868774 -0.70659384,60.6663629 0.202952459,50.1670062 C1.11249876,39.6676496 8.91414663,27.0183763 11.4877509,20.1557034 C14.0613551,13.2930306 14.3267131,10.3800005 15.6445779,8.99096917 C16.9624427,7.60193788 18.8272245,10.3398425 19.3949397,11.8215157" id="Shape" fill="#90CF61" fill-rule="nonzero"></path>
                <path d="M51.4603462,16.8464667 C56.2988706,22.4524378 60.476442,34.3391261 62.0053945,43.7984714 C63.5343471,53.2578167 62.058371,64.0887212 60.6340615,73.6025384 C59.209752,83.1163556 57.5717662,94.4497138 53.4595374,100.881375 C49.3473086,107.313035 42.114879,111.672335 35.9606888,112.192503 C29.8064986,112.712672 21.5425108,109.008523 16.5343961,104.002385 C11.5262814,98.9962474 8.28013059,91.044637 5.91200077,82.1556779 C3.54387094,73.2667189 1.53317699,61.1423994 2.32561712,50.6686307 C3.11805725,40.194862 6.82111845,26.7501393 10.6666415,19.3130658 C14.5121646,11.8759922 19.8530485,8.17749878 25.3987556,6.04618936 C30.9444627,3.91487993 38.360728,3.4682533 43.9408841,6.52520925 C49.5210402,9.5821652 56.279295,18.9914292 58.8796921,24.3879251 C61.4800893,29.7844209 60.4496682,38.5750552 59.543267,38.9041844 M36.1368582,5.37234382 C41.7024979,5.48508236 50.1642037,10.0035786 54.2511178,16.2117412 C58.3380318,22.4199037 59.0945011,32.0727349 60.6583424,42.6213191 C62.2221838,53.1699033 64.8097353,69.6584772 63.6341657,79.5032465 C62.4585962,89.3480158 58.9851862,96.3674029 53.6049251,101.689935 C48.2246641,107.012467 37.5840748,111.060138 31.3525996,111.438439 C25.1211244,111.81674 20.8511781,109.032446 16.2160741,103.959743 C11.5809701,98.8870399 5.69879699,90.0634655 3.54197554,81.0022193 C1.38515409,71.9409731 2.10102402,59.9603566 3.27514543,49.592266 C4.44926684,39.2241755 6.51592015,26.7597273 10.586704,18.7936759 C14.6574878,10.8276245 23.8651742,4.71726591 27.6998485,1.79595767 C31.5345229,-1.12535056 32.6940083,0.63424616 33.5947503,1.26582645 C34.4954923,1.89740675 32.6485714,4.13578612 33.1043005,5.58543944" id="Shape" stroke="#000000" stroke-width="2"></path>
            </g>
            <g id="Group" transform="translate(173.865728, 150.647647) rotate(-123.783358) translate(-173.865728, -150.647647) translate(139.865728, 93.647647)">
                <path d="M34.5430807,1.33759882 C40.3072035,1.47076388 49.9318158,8.81174709 54.4701244,15.0272589 C59.0084331,21.2427707 59.9997705,29.0691137 61.7729326,38.6306696 C63.5460948,48.1922254 66.7981602,62.4019597 65.1090975,72.3965941 C63.4200348,82.3912285 56.6526882,92.2706905 51.6385566,98.5984758 C46.624425,104.926261 40.4830662,109.741028 35.0243078,110.363306 C29.5655494,110.985584 23.8546137,107.344796 18.8860062,102.332146 C13.9173987,97.3194959 7.91292486,89.4068396 5.21266281,80.2874071 C2.51240076,71.1679746 1.76978318,57.8496074 2.68443391,47.6155508 C3.59908464,37.3814943 6.90747897,26.2733443 10.7005672,18.8830677 C14.4936554,11.492791 18.623221,4.93101511 25.4429633,3.27389085 C32.2627056,1.61676659 45.8683968,4.85083711 51.619021,8.9403221 C57.3696453,13.0298071 60.6225582,27.2548838 59.9467087,27.8108008 M61.5939401,22.5819129 C65.2634139,30.1151854 67.8296574,47.8441212 67.9104396,58.4767099 C67.9912217,69.1092986 66.3504203,78.1932065 62.0786331,86.3774453 C57.8068459,94.561684 48.1850766,103.425977 42.2797162,107.582143 C36.3743559,111.738308 32.4326557,113.747567 26.6464708,111.314437 C20.8602859,108.881307 11.1043366,100.869445 7.56260695,92.9833635 C4.0208773,85.0972819 6.00628502,73.7760949 5.3960929,63.997947 C4.78590077,54.2197992 1.84098452,43.9980499 3.90145419,34.3144765 C5.96192387,24.6309031 12.3162954,11.0605722 17.7589109,5.89650668 C23.2015265,0.732441189 30.9906039,2.34092361 36.5571473,3.33008353 C42.1236907,4.31924346 47.6278947,8.02105752 51.1581715,11.8314662 C54.6884482,15.641875 56.6117716,23.9342497 57.7388077,26.1925359 C58.8658437,28.450822 58.2598746,24.6608757 57.9203878,25.3811833" id="Shape" fill="#90CF61" fill-rule="nonzero"></path>
                <path d="M50.2242843,9.96896858 C55.6456954,13.9698015 59.2539167,22.1837218 61.9393766,31.0722875 C64.6248364,39.9608533 66.9615249,52.7242153 66.3370435,63.300363 C65.7125621,73.8765107 62.5726584,86.7330884 58.1924881,94.5291737 C53.8123179,102.325259 45.8396783,107.721578 40.0560223,110.076875 C34.2723663,112.432172 28.7497133,112.403376 23.490552,108.660956 C18.2313906,104.918537 12.3949761,96.5663147 8.50105426,87.6223579 C4.60713236,78.678401 0.0650355645,65.1165685 0.126393108,54.9972149 C0.189005636,44.8778613 5.04229,34.9113334 8.87296447,26.9062362 C12.7036389,18.9011389 17.7376153,10.9213451 23.1110674,6.96663132 C28.4845195,3.01191757 34.2114941,-2.10311805 41.1136772,3.17795367 C48.0158604,8.45902539 61.0698309,27.1216866 64.5241661,38.6530616 C67.9785013,50.1844367 62.7394597,71.9829191 61.8396883,72.366204 M31.0465972,3.62603917 C36.5476527,2.86137238 45.1742112,5.40770474 50.2416569,10.6521187 C55.3091026,15.8965326 58.8259106,25.547223 61.4512712,35.0925226 C64.0766317,44.6378223 67.1799585,58.067298 65.9938199,67.9239163 C64.8076814,77.7805346 59.1193118,86.7214564 54.3344397,94.2322325 C49.5495676,101.743009 43.0591355,110.969992 37.2845873,112.988573 C31.5100391,115.007154 25.1661456,111.487223 19.6871504,106.343718 C14.2081552,101.200214 7.29295094,91.2560525 4.41061591,82.1275477 C1.52828087,72.9990429 1.11885499,61.3177308 2.39314018,51.5726897 C3.66742538,41.8276487 8.31020859,31.4972339 12.0563271,23.6573013 C15.8024456,15.8173687 21.083821,8.36414881 24.8698511,4.53309415 C28.6558812,0.702039478 33.353498,1.30929885 34.7725075,0.670973247 C36.1915171,0.0326476427 33.9346108,-0.37647177 33.3839084,0.703140518" id="Shape" stroke="#000000" stroke-width="2"></path>
            </g>
            <g id="Group" transform="translate(125.455044, 131.606556) rotate(-11.039428) translate(-125.455044, -131.606556) translate(80.955044, 59.106556)">
                <path d="M72.0848879,20.7251456 C77.7566133,27.511486 83.3701317,39.9226618 85.7869903,50.9451955 C88.2038488,61.9677292 88.700666,75.0649327 86.5860392,86.8603478 C84.4714124,98.6557629 78.5532537,112.597791 73.0992294,121.717686 C67.6452051,130.837582 60.3892616,138.132804 53.8618933,141.579721 C47.3345249,145.026638 40.6798286,145.805202 33.9350191,142.39919 C27.1902097,138.993177 18.6772646,129.785791 13.3930368,121.143646 C8.10880887,112.501501 4.10127296,101.566281 2.22965184,90.5463174 C0.358030728,79.5263537 0.200264963,66.2728059 2.16331005,55.0238639 C4.12635515,43.7749219 8.80761869,31.8042791 14.0079224,23.0526651 C19.2082261,14.3010511 26.4568955,5.56952328 33.3651323,2.51417996 C40.273369,-0.541163354 47.5353669,-1.79828506 55.4573428,4.72060524 C63.3793188,11.2394955 75.6662303,30.4408526 80.8969881,41.6275218 C86.127746,52.8141909 87.4242042,71.1992296 86.8418899,71.8406203 M46.8464981,4.18866573 C53.3983079,3.03832688 60.810894,5.27278234 66.1529884,10.996929 C71.4950829,16.7210756 75.1196258,28.531296 78.8990647,38.5335456 C82.6785037,48.5357952 88.5691656,59.1504131 88.8296219,71.0104268 C89.0900782,82.8704405 84.1858097,99.5908195 80.4618024,109.693628 C76.7377951,119.796436 73.1201572,126.245966 66.485578,131.627277 C59.8509989,137.008589 47.7968772,141.921762 40.6543275,141.982195 C33.5117778,142.041232 28.9853531,138.264731 23.6302799,131.985687 C18.2752068,125.706643 12.4394988,115.33803 8.52388859,104.307234 C4.60827841,93.2764377 -0.266818437,77.9253043 0.136618824,65.8009107 C0.540056085,53.6765171 6.53277856,40.9287064 10.9445122,31.5608723 C15.3562458,22.1930381 20.8232035,14.1562006 26.6070204,9.59390575 C32.3908373,5.03161091 42.6578329,5.10781626 45.6474136,4.18710321 C48.6369942,3.26639015 45.1690431,3.70137608 44.5445045,4.06962742" id="Shape" fill="#90CF61" fill-rule="nonzero"></path>
                <path d="M59.9886465,5.95209924 C66.8238954,9.13030231 73.7299559,20.4739695 77.9952143,29.4842046 C82.2604727,38.4944397 84.6559391,48.5056372 85.5801971,60.0135099 C86.5044552,71.5213825 86.068567,87.1561252 83.5407624,98.5314406 C81.0129578,109.906756 75.9220021,121.288639 70.4133694,128.265402 C64.9047368,135.242166 57.4652064,138.699765 50.4889667,140.392021 C43.5127269,142.084278 34.8961995,142.403658 28.5559307,138.418943 C22.2156619,134.434228 16.7099725,125.878076 12.4473538,116.483732 C8.18473508,107.089387 4.21712127,94.1315351 2.98021841,82.0528776 C1.74331554,69.9742201 2.45079336,54.9297657 5.02593658,44.0117866 C7.6010798,33.0938076 12.9189696,23.5443849 18.4310777,16.5450032 C23.9431858,9.5456215 30.551777,2.83164394 38.0985851,2.01549656 C45.6453933,1.19934918 58.3771719,8.79373067 63.7119267,11.6481189 C69.0466815,14.5025071 70.3820137,18.4522264 70.1071138,19.1418259 M71.629808,17.9286871 C76.3112306,23.3082643 78.7447938,33.0399386 80.6997207,44.3895576 C82.6546477,55.7391766 83.7306291,73.6090696 83.3593697,86.0264013 C82.9881103,98.443733 82.6812891,109.932342 78.4721645,118.893548 C74.2630399,127.854753 65.3241586,135.681476 58.1046219,139.793636 C50.8850853,143.905797 42.4839545,146.12183 35.1549446,143.566509 C27.8259346,141.011189 19.0988903,132.56863 14.1305621,124.461711 C9.16223398,116.354793 7.40159979,105.787644 5.34497565,94.9249966 C3.28835151,84.0623493 0.555763025,71.1342895 1.79081729,59.2858278 C3.02587155,47.437366 8.13089795,32.6450933 12.7553012,23.8342262 C17.3797045,15.0233591 22.5901512,9.96014154 29.537237,6.42062508 C36.4843228,2.88110862 47.2006715,0.394182435 54.437816,2.59712746 C61.6749605,4.80007248 70.4291512,17.3830257 72.960104,19.6382952 C75.4910568,21.8935647 70.6723466,15.7630408 69.623533,16.1287446" id="Shape" stroke="#000000" stroke-width="2"></path>
            </g>
            <g id="Group" transform="translate(87.946349, 174.575468)">
                <polyline id="Path" fill="#EEA96A" points="1.5830374 7.58261048 15.8735894 106.945859 101.999484 105.502449 118.26935 11.8905853 120.698309 4.16977827 118.825734 7.50122528 1.46938507 0.0482427697"></polyline>
                <path d="M1.22588489,6.67567071 C3.60226755,22.3113278 12.805723,79.7921133 16.9744991,95.4288617 C21.1432752,111.06561 13.1012411,99.4868339 26.2385414,100.496161 C39.3758418,101.505488 82.8713149,102.434575 95.7983012,101.484825 C108.725288,100.535074 100.46948,109.033527 103.80046,94.7976602 C107.131439,80.5617939 114.119706,30.9095459 115.784179,16.0696267 C117.448652,1.22970758 132.658006,7.51285393 113.787297,5.75814535 C94.9165882,4.00343677 21.5727994,5.81736769 2.55992533,5.54137523 M5.9426596,5.58373311 C7.90946612,20.6858464 11.429926,75.6023995 14.6357889,91.7219521 C17.8416519,107.841505 11.5386415,100.294019 25.1778373,102.301048 C38.8170331,104.308077 82.6931261,106.140281 96.4709638,103.764127 C110.248802,101.387972 104.025333,102.83403 107.844864,88.0441214 C111.664395,73.2542128 117.973469,29.1591734 119.38815,15.0246756 C120.802831,0.890177929 136.218747,4.81375116 116.332949,3.23713508 C96.4471499,1.660519 18.9486468,5.97396509 0.0733574539,5.56497916" id="Shape" stroke="#000000" stroke-width="2"></path>
            </g>
            <g id="Group" transform="translate(66.946349, 161.975468)">
                <polyline id="Path" fill="#EEA96A" fill-rule="nonzero" points="6.81229441 4.61110225 157.264724 3.81870684 154.544937 36.2975235 0.0875358903 33.6010094"></polyline>
                <path d="M0.144227943,3.86925449 C59.636982,5.88657414 120.008689,3.17587264 156.501833,1.67141929 M2.23141134,3.95904677 C37.7920326,6.85541009 73.1744357,4.77730829 158.874455,3.66675311 M158.064904,0.183348094 C161.043502,17.6750957 157.286852,28.5896891 155.86401,31.925479 M160.389151,5.41481607 C157.549279,12.9610098 160.386635,23.4503533 157.241674,30.6327512 M155.104581,30.4712334 C110.511492,30.5919626 58.9658322,34.493899 5.85781584,36.4951008 M156.846264,33.6874792 C104.942554,34.091412 52.8715453,34.6916499 4.37065821,32.5515204 M3.92783653,35.45038 C-0.438184817,23.3938004 6.71913822,17.7465638 4.7416804,5.46258946 M1.31038314,31.9648545 C2.06274177,22.8218841 1.29610747,14.09701 2.34455361,2.28033514" id="Shape" stroke="#000000" stroke-width="2"></path>
            </g>
            <g id="Group" transform="translate(113.546349, 148.975468)" stroke="#000000" stroke-width="2">
                <path d="M1.54260116,1.32527314 C1.95848969,3.1013443 4.10883296,9.71262349 4.62350371,11.5264964 M0.172495916,0.176844601 C0.321272006,1.61775718 2.89590509,7.83860697 3.48081418,9.53341512" id="Shape"></path>
            </g>
            <g id="Group" transform="translate(134.946349, 147.775468)" stroke="#000000" stroke-width="2">
                <path d="M5.01471492,0.926584888 C4.24200838,1.67408768 0.96957053,4.86872544 0.0907303811,5.8940772 M4.05513598,0.120508481 C3.61731115,0.910885094 2.82210539,5.5861227 2.5069653,6.99527267" id="Shape"></path>
            </g>
            <g id="Group" transform="translate(108.946349, 121.975468)" stroke="#000000" stroke-width="2">
                <path d="M0.144119398,1.18024735 C1.29942312,1.67331667 5.91783679,4.20253389 7.06879542,4.78251175 M2.2675251,0.0702215266 C3.26213959,0.720276464 5.3186842,5.37482785 5.96065554,6.35301132" id="Shape"></path>
            </g>
            <g id="Group" transform="translate(104.946349, 86.775468)" stroke="#000000" stroke-width="2">
                <path d="M1.16094866,0.57146244 C2.11972228,2.14238039 4.0710425,6.33374813 4.87432826,7.76657039 M0.141135529,0.107667005 C0.985982385,1.92471554 2.72764144,7.86027629 3.62036379,9.02709511" id="Shape"></path>
            </g>
            <g id="Group" transform="translate(124.346349, 88.975468)" stroke="#000000" stroke-width="2">
                <path d="M4.34216404,0.728404517 C3.58535771,2.45851111 1.14666392,7.80538688 0.427735787,9.23249524 M3.11317864,0.132588785 C2.1846549,2.06101775 0.610155256,8.58910464 0.0260187919,10.2525213" id="Shape"></path>
            </g>
            <g id="Group" transform="translate(132.746349, 115.175468)" stroke="#000000" stroke-width="2">
                <path d="M4.74722352,1.24946039 C4.07768418,2.41405386 1.59859479,7.34480009 0.610228555,8.53421839 M6.80290247,0.037964425 C6.09368049,0.812950036 1.01322182,4.91278977 0.0994304228,6.56411303" id="Shape"></path>
            </g>
            <g id="Group" transform="translate(40.946349, 58.375468)" stroke="#000000" stroke-width="2">
                <path d="M9.28562115,1.22375921 C7.76910022,1.55887277 2.69255938,3.95137059 1.25318298,4.2687679 M11.2181921,0.0242287132 C9.46738714,0.500193955 1.4088692,5.21601657 0.0592532365,5.86097907" id="Shape"></path>
            </g>
            <g id="Group" transform="translate(58.346349, 71.775468)" stroke="#000000" stroke-width="2">
                <path d="M5.39388749,0.0930957892 C4.38234528,1.67035085 1.80586496,7.86050856 1.36930244,9.30870056 M7.03342145,2.32422918 C5.74848429,3.61638627 0.932369122,6.00030645 0.178259095,7.29354445" id="Shape"></path>
            </g>
            <g id="Group" transform="translate(136.800000, 25.200000)" stroke="#000000" stroke-width="2">
                <path d="M1.54246768,0.996282031 C1.73805984,2.38160918 2.36106136,6.94266504 2.96445156,8.02365762 M0.0703589401,0.199336206 C0.597653174,1.2592742 4.33124662,4.59006439 5.13057134,6.02637189" id="Shape"></path>
            </g>
            <g id="Group" transform="translate(124.146349, 45.575468)" stroke="#000000" stroke-width="2">
                <path d="M0.133571792,0.207788998 C1.22189002,0.580198288 6.27258602,1.73302915 7.69453015,2.30320374 M2.30217238,2.42529903 C3.13788338,3.00976172 5.57914694,2.83365872 6.56904806,3.27291175" id="Shape"></path>
            </g>
            <g id="Group" transform="translate(152.946349, 43.175468)" stroke="#000000" stroke-width="2">
                <path d="M9.42170745,1.28645554 C8.21990556,1.82093069 2.65559145,4.86384149 1.19668958,5.2216446 M8.46291563,0.112755987 C7.08653955,0.251714285 1.66362303,2.76646627 0.180659601,3.46622967" id="Shape"></path>
            </g>
            <g id="Group" transform="translate(182.346349, 125.375468)" stroke="#000000" stroke-width="2">
                <path d="M3.85306949,0.762730418 C3.46653647,1.77353341 0.444663788,6.12412016 0.0482101471,6.99664687 M2.57157442,0.087685544 C2.66038685,0.666849077 2.65526511,4.0255158 2.37483775,5.21613102" id="Shape"></path>
            </g>
            <g id="Group" transform="translate(202.146349, 136.775468)" stroke="#000000" stroke-width="2">
                <path d="M5.87854267,0.169271786 C4.91238833,0.697831336 1.81015905,2.94604335 0.57580018,3.73486026 M4.5225651,2.54794405 C3.40227731,3.2126311 0.679243507,4.11117667 0.0640072955,4.73395346" id="Shape"></path>
            </g>
            <g id="Group" transform="translate(181.546349, 152.575468)" stroke="#000000" stroke-width="2">
                <path d="M1.37359139,1.13025475 C2.36921798,1.6799877 6.17213696,4.39900144 6.70299448,5.13583763 M0.158644542,0.100681085 C1.10566623,0.700811472 5.21295173,5.10071141 6.36157088,6.18197098" id="Shape"></path>
            </g>
            <g id="Group" transform="translate(48.346349, 105.175468)" stroke="#000000" stroke-width="2">
                <path d="M7.1704039,1.39961403 C5.99328238,2.4044019 2.44259572,6.23587307 1.436151,6.96673415 M9.17417546,0.0852602723 C7.71582899,0.830724507 1.06124199,4.10010333 0.149208457,5.25082407" id="Shape"></path>
            </g>
            <g id="Group" transform="translate(32.946349, 90.375468)" stroke="#000000" stroke-width="2">
                <path d="M9.07674835,1.4361662 C7.72407225,1.98201352 2.40525198,4.67912646 1.20527277,5.5967366 M7.48657802,0.137343137 C5.94121926,0.751498424 1.13942596,5.1953696 0.112960775,6.57186518" id="Shape"></path>
            </g>
            <g id="Group" transform="translate(20.800000, 81.400000)" stroke="#000000" stroke-width="2">
                <path d="M7.15331093,0.1695556 C5.90906713,0.609059726 1.86224936,2.99926252 0.802938811,3.69372508 M9.2594765,2.43881165 C7.8388584,2.98671092 1.6276413,4.17787938 0.137689758,4.67578754" id="Shape"></path>
            </g>
            <g id="Group" transform="translate(12.200000, 57.200000)" stroke="#000000" stroke-width="2">
                <path d="M6.65943905,1.94173375 C5.34961908,1.99451711 0.931240179,2.05391136 0.126800231,1.79968712 M5.0822895,0.970540026 C4.06496983,0.722225315 3.09760435,0.0549061961 2.5043898,0.137885612" id="Shape"></path>
            </g>
            <g id="Group" transform="translate(35.600000, 26.200000)" stroke="#000000" stroke-width="2">
                <path d="M1.41797958,7.68668278 C1.25127716,6.544649 1.37025114,1.30697669 1.0569415,0.0842555715 M0.0732801361,6.85709519 C-0.223727981,5.877493 0.972185992,2.16848159 0.725196577,1.26555412" id="Shape"></path>
            </g>
            <g id="Group" transform="translate(60.200000, 28.200000)" stroke="#000000" stroke-width="2">
                <path d="M0.197767618,9.63388679 C0.258836846,8.08974708 0.805810823,1.79840683 0.986643998,0.176558442 M2.08245689,9.00392005 C2.05662867,7.59894955 0.550555136,3.02104205 0.370961633,1.69510953" id="Shape"></path>
            </g>
            <g id="Group" transform="translate(76.346349, 37.975468)" stroke="#000000" stroke-width="2">
                <path d="M1.54479289,8.49273867 C1.70773005,7.16483057 1.28456268,1.35976386 1.45488586,0.168636826 M0.266670432,7.11957356 C0.300487685,6.07802457 -0.0178639057,3.02338296 0.300811717,1.74939269" id="Shape"></path>
            </g>
            <g id="Group" transform="translate(102.346349, 38.975468)" stroke="#000000" stroke-width="2">
                <path d="M7.05510464,8.03240548 C5.98114042,7.22956251 2.06842969,3.07456738 0.772026068,1.94375139 M5.91020617,6.95557831 C4.64324508,5.89033739 0.751771405,0.776271871 0.0544304912,0.0513518221" id="Shape"></path>
            </g>
            <g id="Group" transform="translate(105.400000, 27.800000)" stroke="#000000" stroke-width="2">
                <path d="M7.17054335,9.79519524 C6.28473159,8.75649673 2.28373926,3.29858392 1.24109374,2.02006684 M6.3022502,9.35938352 C5.16050287,7.98506597 0.487524747,1.71755573 0.0154461913,0.175058572" id="Shape"></path>
            </g>
            <g id="Group" transform="translate(125.000000, 5.000000)" stroke="#000000" stroke-width="2">
                <path d="M0.253692708,6.60073818 C-0.0232382556,6.06280502 -0.0371240629,2.93799945 0.184235226,1.74912829 M2.16774265,5.73940915 C2.15964123,4.99590054 2.54096485,1.11268875 2.34635076,0.200964162" id="Shape"></path>
            </g>
            <g id="Group" transform="translate(147.600000, 1.800000)" stroke="#000000" stroke-width="2">
                <path d="M0.00761244213,6.7606284 C0.608619156,5.74689199 3.99506201,0.985755106 4.86869163,0.166697957 M1.6479228,6.31176031 C2.06415917,5.35233969 3.28523312,2.26891642 3.76679722,1.17311938" id="Shape"></path>
            </g>
            <g id="Group" transform="translate(165.000000, 21.800000)" stroke="#000000" stroke-width="2">
                <path d="M0.057952507,3.91228775 C1.53281535,3.38562267 7.66899276,2.46479133 9.35291103,1.83171432 M1.94838823,6.17228142 C3.24203652,5.28633536 6.83040214,0.97519376 8.0915033,0.122766265" id="Shape"></path>
            </g>
            <g id="Group" transform="translate(172.346349, 44.375468)" stroke="#000000" stroke-width="2">
                <path d="M0.147661603,0.197664355 C1.38158318,0.182514354 7.19969177,0.176528801 8.64830284,0.396575309 M2.31084813,2.66463389 C3.37329359,2.84128595 7.01561599,2.26062646 8.05303831,1.68616319" id="Shape"></path>
            </g>
            <g id="Group" transform="translate(166.546349, 64.575468)" stroke="#000000" stroke-width="2">
                <path d="M1.32680734,0.0146579454 C2.82249386,0.383234082 7.58911178,2.41346311 8.8503432,2.79482587 M0.0568406593,2.20672197 C1.48868419,2.8388439 6.60223455,4.24688306 7.96285407,4.45887079" id="Shape"></path>
            </g>
            <g id="Group" transform="translate(184.146349, 103.175468)" stroke="#000000" stroke-width="2">
                <path d="M1.00741039,9.10247637 C1.39194895,7.66856927 1.23394698,1.55883818 1.57430906,0.0799573664 M0.0771621085,7.95814506 C0.325223591,6.78007499 -0.083542438,2.71769108 0.370744602,1.66912956" id="Shape"></path>
            </g>
            <g id="Group" transform="translate(210.746349, 107.175468)" stroke="#000000" stroke-width="2">
                <path d="M1.04771724,8.76924262 C2.14935446,7.59063023 4.90773962,3.2812077 5.76348737,1.97346019 M0.175923124,11.1843205 C1.73884714,9.67620575 7.36250116,1.67643411 8.19721816,0.167886766" id="Shape"></path>
            </g>
            <g id="Group" transform="translate(220.346349, 136.575468)" stroke="#000000" stroke-width="2">
                <path d="M0.0730149401,3.88479128 C1.93257507,3.45334278 10.9081441,2.17356669 13.204691,1.83717803 M1.86576505,2.61314466 C3.4926985,1.82836884 10.3930922,0.598223979 12.3342561,0.157867811" id="Shape"></path>
            </g>
            <g id="Group" transform="translate(213.946349, 152.975468)" stroke="#000000" stroke-width="2">
                <path d="M1.00837748,1.17388635 C2.44428853,1.57608176 8.35669526,2.06750048 9.85671786,2.20921081 M0.0178394846,0.324572737 C1.16850017,0.449280668 7.26353317,-0.198524042 8.79695845,0.328424862" id="Shape"></path>
            </g>
        </g>
    </g>
</svg>